<mxfile host="app.diagrams.net" modified="2021-05-31T07:51:44.574Z" agent="5.0 (Windows)" etag="GGyKvUfCHY6z0vuS-O5w" version="14.7.3" type="github">
  <diagram id="bf9XANMhJWxB7Vyp1-7H" name="Page-1">
    <mxGraphModel dx="1888" dy="519" grid="1" gridSize="10" guides="1" tooltips="1" connect="1" arrows="1" fold="1" page="1" pageScale="1" pageWidth="850" pageHeight="1100" math="0" shadow="0">
      <root>
        <mxCell id="0" />
        <mxCell id="1" parent="0" />
        <mxCell id="oWoUBl_iRzDlhy3Snszi-1" value="TutorialAccount" style="swimlane;fontStyle=1;align=center;verticalAlign=middle;childLayout=stackLayout;horizontal=1;startSize=29;horizontalStack=0;resizeParent=1;resizeParentMax=0;resizeLast=0;collapsible=0;marginBottom=0;html=1;" vertex="1" parent="1">
          <mxGeometry x="340" y="200" width="140" height="54" as="geometry" />
        </mxCell>
        <mxCell id="oWoUBl_iRzDlhy3Snszi-4" value="«interface»&lt;br&gt;&lt;b&gt;Account&lt;/b&gt;" style="html=1;" vertex="1" parent="1">
          <mxGeometry x="440" y="60" width="110" height="50" as="geometry" />
        </mxCell>
        <mxCell id="oWoUBl_iRzDlhy3Snszi-5" value="&lt;div&gt;&amp;lt;&amp;lt;Abstract&amp;gt;&amp;gt;&lt;br&gt;&lt;/div&gt;&lt;div&gt;Bank&lt;/div&gt;" style="swimlane;fontStyle=1;align=center;verticalAlign=middle;childLayout=stackLayout;horizontal=1;startSize=29;horizontalStack=0;resizeParent=1;resizeParentMax=0;resizeLast=0;collapsible=0;marginBottom=0;html=1;" vertex="1" parent="1">
          <mxGeometry x="90" y="90" width="140" height="54" as="geometry" />
        </mxCell>
        <mxCell id="oWoUBl_iRzDlhy3Snszi-6" value="&lt;div&gt;CheckingAccount&lt;/div&gt;" style="swimlane;fontStyle=1;align=center;verticalAlign=middle;childLayout=stackLayout;horizontal=1;startSize=29;horizontalStack=0;resizeParent=1;resizeParentMax=0;resizeLast=0;collapsible=0;marginBottom=0;html=1;" vertex="1" parent="1">
          <mxGeometry x="520" y="200" width="140" height="54" as="geometry" />
        </mxCell>
        <mxCell id="oWoUBl_iRzDlhy3Snszi-7" value="TPBank" style="swimlane;fontStyle=1;align=center;verticalAlign=middle;childLayout=stackLayout;horizontal=1;startSize=29;horizontalStack=0;resizeParent=1;resizeParentMax=0;resizeLast=0;collapsible=0;marginBottom=0;html=1;" vertex="1" parent="1">
          <mxGeometry x="-20" y="200" width="140" height="54" as="geometry" />
        </mxCell>
        <mxCell id="oWoUBl_iRzDlhy3Snszi-8" value="&lt;div&gt;MMBank&lt;/div&gt;" style="swimlane;fontStyle=1;align=center;verticalAlign=middle;childLayout=stackLayout;horizontal=1;startSize=29;horizontalStack=0;resizeParent=1;resizeParentMax=0;resizeLast=0;collapsible=0;marginBottom=0;html=1;" vertex="1" parent="1">
          <mxGeometry x="160" y="200" width="140" height="54" as="geometry" />
        </mxCell>
        <mxCell id="oWoUBl_iRzDlhy3Snszi-9" value="" style="endArrow=block;dashed=1;endFill=0;endSize=12;html=1;exitX=0.5;exitY=0;exitDx=0;exitDy=0;entryX=0.5;entryY=1;entryDx=0;entryDy=0;" edge="1" parent="1" source="oWoUBl_iRzDlhy3Snszi-7" target="oWoUBl_iRzDlhy3Snszi-5">
          <mxGeometry width="160" relative="1" as="geometry">
            <mxPoint x="-70" y="150" as="sourcePoint" />
            <mxPoint x="90" y="150" as="targetPoint" />
          </mxGeometry>
        </mxCell>
        <mxCell id="oWoUBl_iRzDlhy3Snszi-10" value="" style="endArrow=block;dashed=1;endFill=0;endSize=12;html=1;exitX=0.5;exitY=0;exitDx=0;exitDy=0;" edge="1" parent="1" source="oWoUBl_iRzDlhy3Snszi-8">
          <mxGeometry width="160" relative="1" as="geometry">
            <mxPoint x="160" y="350" as="sourcePoint" />
            <mxPoint x="190" y="150" as="targetPoint" />
          </mxGeometry>
        </mxCell>
        <mxCell id="oWoUBl_iRzDlhy3Snszi-11" value="" style="endArrow=block;dashed=1;endFill=0;endSize=12;html=1;exitX=0.5;exitY=0;exitDx=0;exitDy=0;entryX=0.5;entryY=1;entryDx=0;entryDy=0;" edge="1" parent="1" source="oWoUBl_iRzDlhy3Snszi-1" target="oWoUBl_iRzDlhy3Snszi-4">
          <mxGeometry width="160" relative="1" as="geometry">
            <mxPoint x="390" y="186" as="sourcePoint" />
            <mxPoint x="500" y="130" as="targetPoint" />
          </mxGeometry>
        </mxCell>
        <mxCell id="oWoUBl_iRzDlhy3Snszi-12" value="" style="endArrow=block;dashed=1;endFill=0;endSize=12;html=1;exitX=0.5;exitY=0;exitDx=0;exitDy=0;entryX=0.5;entryY=1;entryDx=0;entryDy=0;" edge="1" parent="1" source="oWoUBl_iRzDlhy3Snszi-6" target="oWoUBl_iRzDlhy3Snszi-4">
          <mxGeometry width="160" relative="1" as="geometry">
            <mxPoint x="550" y="190" as="sourcePoint" />
            <mxPoint x="635" y="120" as="targetPoint" />
          </mxGeometry>
        </mxCell>
        <mxCell id="oWoUBl_iRzDlhy3Snszi-13" value="&lt;div&gt;has - a&lt;/div&gt;" style="endArrow=open;html=1;endSize=12;startArrow=diamondThin;startSize=14;startFill=0;edgeStyle=orthogonalEdgeStyle;align=left;verticalAlign=bottom;exitX=1;exitY=0.5;exitDx=0;exitDy=0;entryX=0;entryY=0.5;entryDx=0;entryDy=0;" edge="1" parent="1" source="oWoUBl_iRzDlhy3Snszi-5" target="oWoUBl_iRzDlhy3Snszi-4">
          <mxGeometry x="-1" y="3" relative="1" as="geometry">
            <mxPoint x="280" y="70" as="sourcePoint" />
            <mxPoint x="440" y="110" as="targetPoint" />
          </mxGeometry>
        </mxCell>
      </root>
    </mxGraphModel>
  </diagram>
</mxfile>
